<svg id="Layer_1" enable-background="new 0 0 512 512" height="512" viewBox="0 0 512 512" width="512" xmlns="http://www.w3.org/2000/svg"><g><path d="m428.508 259.454c-15.77-15.77-36.736-24.455-59.038-24.455-19.716 0-38.382 6.798-53.342 19.268-6.184-25.278-21.687-46.36-44.958-60.181-25.837-15.344-55.468-18.134-83.439-7.853-29.12 10.703-55.679 35.163-76.804 70.734-21.256 35.789-32.546 74.848-31.793 109.983.81 37.736 15.265 66.838 40.703 81.947 4.857 2.884 10.036 5.188 15.478 6.887 1.7 5.442 4.003 10.621 6.888 15.477 15.108 25.439 44.211 39.895 81.947 40.704 1.102.024 2.207.036 3.316.036 34.265 0 72.001-11.24 106.666-31.828 35.572-21.126 60.031-47.685 70.734-76.805 10.279-27.97 7.49-57.603-7.854-83.439h.001c-13.614-22.924-34.278-38.302-59.055-44.668 9.095-6.66 20.025-10.262 31.512-10.262 14.288 0 27.722 5.564 37.825 15.667 5.857 5.858 15.355 5.858 21.213 0 5.858-5.857 5.858-15.354 0-21.212zm-51.8 133.565c-8.298 22.576-28.317 43.794-57.895 61.36-60.806 36.112-129.872 36.83-150.818 1.563-2.7-4.547-4.546-9.629-5.484-15.104-1.074-6.268-5.983-11.177-12.252-12.25-5.473-.938-10.554-2.783-15.103-5.484-16.206-9.625-25.45-29.796-26.029-56.796-.635-29.602 9.165-62.992 27.594-94.021 24.071-40.532 54.547-62.27 84.731-62.27 11.637 0 23.232 3.232 34.399 9.864 23.323 13.853 35.074 37.394 33.087 66.286-.298 4.326 1.292 8.569 4.358 11.636s7.312 4.652 11.636 4.358c28.894-1.993 52.434 9.763 66.285 33.087h.001c10.8 18.183 12.697 38.159 5.49 57.771z"/><path d="m316.446 120.668c8.284 0 15-6.716 15-15v-90.668c0-8.284-6.716-15-15-15s-15 6.716-15 15v90.668c0 8.285 6.715 15 15 15z"/><path d="m195.555 120.668c8.284 0 15-6.716 15-15v-90.668c0-8.284-6.716-15-15-15s-15 6.716-15 15v90.668c0 8.285 6.716 15 15 15z"/><path d="m256 148.09c8.284 0 15-6.716 15-15v-87.867c0-8.284-6.716-15-15-15s-15 6.716-15 15v87.868c0 8.284 6.716 14.999 15 14.999z"/></g></svg>