<svg id="Capa_1" enable-background="new 0 0 512 512" height="512" viewBox="0 0 512 512" width="512" xmlns="http://www.w3.org/2000/svg"><g><g><path d="m438.315 368.454v-64.554c15.132-3.623 24.89-17.423 24.792-32.68 0-17.817-14.496-32.313-32.313-32.313h-97.612v-27.923c0-11.24 1.304-22.4 3.819-33.257 34.047-1.457 59.05-12.572 74.397-33.095 27.559-36.853 12.45-89.612 11.793-91.84-2.093-7.105-11.31-9.506-16.603-4.306l-42.977 42.233c-12.225 12.013-22.443 25.832-30.429 40.813v-31.736c0-27.015 7.602-53.381 21.985-76.248 2.941-4.676 1.534-10.85-3.141-13.791-4.676-2.942-10.85-1.536-13.791 3.141-14.062 22.357-22.417 47.652-24.513 73.828-8.097-15.362-18.526-29.464-30.976-41.694l-42.974-42.234c-5.293-5.202-14.51-2.798-16.604 4.306-.656 2.228-15.764 54.989 11.795 91.844 15.319 20.485 40.269 31.59 74.22 33.079 1.642 8.691 3.996 25.451 3.996 50.125v56.755h-113.111v-49.89c0-19.728 5.164-39.216 14.932-56.358 2.735-4.799 1.062-10.906-3.737-13.641-4.799-2.736-10.907-1.062-13.641 3.737-6.221 10.916-10.839 22.645-13.778 34.787-5.277-8.665-11.607-16.691-18.885-23.841l-30.747-30.217c-5.293-5.203-14.509-2.798-16.603 4.306-.486 1.65-11.672 40.716 8.886 68.211 11.164 14.932 29.02 23.199 53.104 24.678l.467 2.04v36.187h-98.86c-17.817 0-32.313 14.496-32.313 32.313-.097 15.258 9.66 29.057 24.791 32.68v64.554c0 24.503 6.478 49.439 19.76 70.149h-26.292c-5.524 0-10.001 4.478-10.001 10.001v53.395c0 5.524 4.478 10.001 10.001 10.001h377.695c5.524 0 10.001-4.478 10.001-10.001v-53.395c0-5.524-4.478-10.001-10.001-10.001h-26.293c13.283-20.709 19.761-45.645 19.761-70.148zm-60.684-263.468 29.532-29.021c1.703 15.853 1.257 39.311-11.838 56.759-10.555 14.064-28.016 22.289-52.012 24.534 7.582-19.52 19.232-37.447 34.318-52.272zm-126.596-17.947c-13.095-17.449-13.541-40.911-11.839-56.762l29.53 29.022c15.052 14.787 26.785 32.661 34.404 52.281-24.038-2.233-41.528-10.461-52.095-24.541zm-108.47 77.051c-7.313-9.733-8.763-22.371-8.381-32.587l16.754 16.465s.001.001.001.001c9.336 9.172 16.834 20.046 22.106 31.964-13.904-2.082-24.126-7.387-30.48-15.843zm292.281 327.907h-357.692v-33.392h357.693v33.392zm-316.086-53.394c-17.583-17.884-25.072-45.661-25.072-70.149v-63.661h117.961c5.524 0 10.001-4.478 10.001-10.001 0-5.524-4.478-10.001-10.001-10.001h-127.963c-8.422 0-14.947-4.508-14.79-13.57 0-6.788 5.522-12.31 12.31-12.31h349.587c6.788 0 12.31 5.522 12.31 12.31.144 9.068-6.359 13.57-14.79 13.57h-128.31c-5.524 0-10.001 4.478-10.001 10.001 0 5.524 4.478 10.001 10.001 10.001h118.31v63.661c0 24.488-7.489 52.265-25.072 70.149z"/><path d="m265.231 290.97c-3.399-8.299-15.609-7.939-18.64.455-1.448 4.01-.091 8.624 3.259 11.247 3.241 2.538 7.819 2.785 11.332.663 4.169-2.519 5.924-7.87 4.049-12.365z"/></g></g></svg>