<svg xmlns="http://www.w3.org/2000/svg" height="640.00067pt" version="1.1" viewBox="0 0 640.00067 640.00067" width="640.00067pt">
<g id="surface1">
<path d="M 629.328125 277.332031 L 604.859375 277.332031 C 601.636719 255.820312 595.992188 234.734375 588.027344 214.484375 L 609.15625 202.304688 C 614.261719 199.363281 616.015625 192.839844 613.078125 187.738281 C 613.070312 187.738281 613.070312 187.734375 613.070312 187.734375 L 581.074219 132.269531 C 578.132812 127.164062 571.609375 125.414062 566.503906 128.359375 C 566.5 128.359375 566.496094 128.359375 566.492188 128.363281 L 545.265625 140.652344 C 531.789062 123.65625 516.398438 108.265625 499.402344 94.785156 L 511.675781 73.558594 C 514.640625 68.472656 512.921875 61.9375 507.832031 58.972656 C 507.800781 58.949219 507.765625 58.929688 507.730469 58.914062 L 452.261719 26.914062 C 447.160156 23.980469 440.648438 25.726562 437.703125 30.828125 L 425.5 51.957031 C 405.257812 44.019531 384.171875 38.398438 362.664062 35.199219 L 362.664062 10.667969 C 362.664062 4.773438 357.886719 0 351.996094 0 L 287.996094 0 C 282.109375 0 277.332031 4.773438 277.332031 10.667969 L 277.332031 35.199219 C 255.820312 38.414062 234.734375 44.050781 214.492188 52.011719 L 202.296875 30.828125 C 199.359375 25.722656 192.835938 23.96875 187.734375 26.914062 C 187.734375 26.914062 187.734375 26.914062 187.726562 26.914062 L 132.265625 58.914062 C 127.15625 61.855469 125.40625 68.378906 128.34375 73.480469 C 128.347656 73.492188 128.355469 73.5 128.359375 73.503906 L 140.640625 94.734375 C 123.636719 108.230469 108.246094 123.636719 94.769531 140.652344 L 73.542969 128.363281 C 68.445312 125.414062 61.917969 127.15625 58.96875 132.253906 C 58.96875 132.261719 58.964844 132.265625 58.964844 132.269531 L 26.960938 187.734375 C 24.023438 192.835938 25.769531 199.359375 30.875 202.304688 C 30.878906 202.304688 30.878906 202.304688 30.878906 202.304688 L 52.011719 214.484375 C 44.03125 234.734375 38.375 255.8125 35.136719 277.332031 L 10.667969 277.332031 C 4.773438 277.332031 0 282.109375 0 288 L 0 352 C 0 357.894531 4.773438 362.667969 10.667969 362.667969 L 35.136719 362.667969 C 38.359375 384.183594 44.003906 405.265625 51.96875 425.515625 L 30.839844 437.699219 C 25.730469 440.636719 23.980469 447.160156 26.917969 452.261719 C 26.921875 452.261719 26.921875 452.265625 26.921875 452.265625 L 58.921875 507.730469 C 60.335938 510.175781 62.664062 511.964844 65.398438 512.691406 C 68.132812 513.410156 71.042969 513.023438 73.503906 511.628906 L 94.730469 499.335938 C 108.207031 516.355469 123.597656 531.765625 140.59375 545.261719 L 128.320312 566.484375 C 125.367188 571.582031 127.105469 578.105469 132.195312 581.066406 C 132.207031 581.070312 132.214844 581.074219 132.226562 581.082031 L 187.6875 613.078125 C 190.136719 614.492188 193.046875 614.875 195.773438 614.144531 C 198.515625 613.417969 200.84375 611.632812 202.25 609.175781 L 214.441406 588.042969 C 234.707031 596.007812 255.800781 601.644531 277.332031 604.855469 L 277.332031 629.335938 C 277.332031 635.226562 282.109375 640 288 640 L 352 640 C 357.894531 640 362.667969 635.226562 362.667969 629.335938 L 362.667969 604.800781 C 384.183594 601.585938 405.261719 595.949219 425.503906 587.988281 L 437.699219 609.121094 C 439.105469 611.578125 441.433594 613.363281 444.171875 614.09375 C 446.902344 614.820312 449.804688 614.4375 452.257812 613.023438 L 507.722656 581.027344 C 512.828125 578.082031 514.582031 571.5625 511.640625 566.457031 C 511.636719 566.453125 511.632812 566.441406 511.628906 566.433594 L 499.351562 545.207031 C 516.347656 531.726562 531.734375 516.335938 545.214844 499.335938 L 566.441406 511.628906 C 568.902344 513.027344 571.8125 513.410156 574.546875 512.691406 C 577.277344 511.964844 579.609375 510.175781 581.023438 507.730469 L 613.023438 452.265625 C 615.96875 447.164062 614.214844 440.640625 609.113281 437.699219 C 609.113281 437.699219 609.113281 437.699219 609.105469 437.699219 L 587.980469 425.515625 C 595.957031 405.269531 601.621094 384.1875 604.863281 362.667969 L 629.332031 362.667969 C 635.226562 362.667969 640 357.894531 640 352 L 640 288 C 639.996094 282.109375 635.21875 277.332031 629.328125 277.332031 Z M 618.664062 341.335938 L 595.515625 341.335938 C 590.105469 341.335938 585.554688 345.386719 584.921875 350.765625 C 581.921875 376.636719 575.148438 401.941406 564.816406 425.855469 C 562.667969 430.832031 564.589844 436.625 569.285156 439.328125 L 589.265625 450.847656 L 567.929688 487.820312 L 547.839844 476.203125 C 543.152344 473.511719 537.195312 474.753906 533.972656 479.09375 C 518.503906 499.988281 500.027344 518.46875 479.132812 533.941406 C 474.796875 537.164062 473.554688 543.121094 476.242188 547.804688 L 487.859375 567.890625 L 450.886719 589.226562 L 439.3125 569.277344 C 436.609375 564.585938 430.8125 562.667969 425.84375 564.820312 C 401.929688 575.152344 376.636719 581.929688 350.757812 584.929688 C 345.382812 585.554688 341.335938 590.109375 341.332031 595.519531 L 341.332031 618.664062 L 298.664062 618.664062 L 298.664062 595.519531 C 298.664062 590.109375 294.613281 585.554688 289.238281 584.929688 C 263.363281 581.929688 238.066406 575.152344 214.152344 564.820312 C 209.183594 562.667969 203.390625 564.585938 200.683594 569.277344 L 189.152344 589.265625 L 152.179688 567.929688 L 163.796875 547.847656 C 166.484375 543.160156 165.242188 537.203125 160.90625 533.980469 C 140.015625 518.511719 121.539062 500.027344 106.070312 479.132812 C 102.847656 474.796875 96.890625 473.554688 92.203125 476.242188 L 72.066406 487.820312 L 50.730469 450.847656 L 70.707031 439.328125 C 75.40625 436.625 77.324219 430.832031 75.175781 425.855469 C 64.847656 401.941406 58.074219 376.644531 55.066406 350.765625 C 54.441406 345.386719 49.886719 341.335938 44.476562 341.335938 L 21.332031 341.335938 L 21.332031 298.664062 L 44.480469 298.664062 C 49.890625 298.664062 54.441406 294.613281 55.074219 289.238281 C 58.074219 263.363281 64.847656 238.058594 75.179688 214.144531 C 77.328125 209.171875 75.40625 203.378906 70.710938 200.671875 L 50.730469 189.152344 L 72.066406 152.179688 L 92.15625 163.796875 C 96.84375 166.488281 102.800781 165.242188 106.023438 160.90625 C 121.492188 140.015625 139.96875 121.527344 160.863281 106.058594 C 165.199219 102.835938 166.4375 96.878906 163.753906 92.191406 L 152.179688 72.066406 L 189.148438 50.730469 L 200.683594 70.722656 C 203.386719 75.414062 209.183594 77.328125 214.152344 75.179688 C 238.066406 64.84375 263.359375 58.070312 289.238281 55.074219 C 294.613281 54.441406 298.660156 49.890625 298.664062 44.480469 L 298.664062 21.335938 L 341.332031 21.335938 L 341.332031 44.480469 C 341.332031 49.890625 345.382812 54.449219 350.757812 55.074219 C 376.632812 58.070312 401.929688 64.84375 425.84375 75.179688 C 430.8125 77.328125 436.605469 75.414062 439.3125 70.722656 L 450.839844 50.730469 L 487.8125 72.066406 L 476.199219 92.148438 C 473.511719 96.839844 474.753906 102.792969 479.089844 106.015625 C 499.980469 121.488281 518.457031 139.96875 533.925781 160.863281 C 537.148438 165.199219 543.105469 166.445312 547.792969 163.753906 L 567.886719 152.136719 L 589.21875 189.109375 L 569.246094 200.628906 C 564.546875 203.332031 562.628906 209.125 564.777344 214.101562 C 575.105469 238.015625 581.875 263.3125 584.882812 289.191406 C 585.488281 294.601562 590.074219 298.683594 595.515625 298.664062 L 618.664062 298.664062 Z M 618.664062 341.335938 " style=" stroke:none;fill-rule:nonzero;fill:rgb(0%,0%,0%);fill-opacity:1;" />
<path d="M 310.054688 249.191406 C 312.191406 254.6875 318.371094 257.40625 323.863281 255.273438 C 326.652344 254.1875 328.855469 251.980469 329.9375 249.191406 L 385.300781 106.804688 C 387.433594 101.3125 384.710938 95.136719 379.214844 93.003906 C 378.832031 92.851562 378.433594 92.722656 378.035156 92.621094 C 339.949219 82.945312 300.046875 82.945312 261.960938 92.621094 C 256.257812 94.101562 252.835938 99.921875 254.316406 105.625 C 254.421875 106.023438 254.550781 106.421875 254.695312 106.804688 Z M 360.933594 110.59375 L 319.996094 215.890625 L 279.0625 110.59375 C 306.101562 105.367188 333.894531 105.367188 360.933594 110.59375 Z M 360.933594 110.59375 " style=" stroke:none;fill-rule:nonzero;fill:rgb(0%,0%,0%);fill-opacity:1;" />
<path d="M 123.070312 215.46875 L 262.898438 277.015625 C 268.289062 279.386719 274.589844 276.945312 276.960938 271.550781 C 278.171875 268.8125 278.167969 265.6875 276.960938 262.941406 L 215.46875 123.0625 C 213.085938 117.675781 206.789062 115.234375 201.398438 117.613281 C 201.023438 117.777344 200.652344 117.96875 200.300781 118.179688 C 166.511719 138.242188 138.296875 166.457031 118.230469 200.242188 C 115.242188 205.320312 116.941406 211.859375 122.019531 214.847656 C 122.378906 215.058594 122.75 215.246094 123.128906 215.414062 Z M 169.148438 169.199219 C 178.851562 159.4375 189.476562 150.644531 200.871094 142.933594 L 246.398438 246.398438 L 142.933594 200.871094 C 150.625 189.472656 159.402344 178.847656 169.152344 169.140625 L 169.152344 169.199219 Z M 169.148438 169.199219 " style=" stroke:none;fill-rule:nonzero;fill:rgb(0%,0%,0%);fill-opacity:1;" />
<path d="M 256 319.996094 C 256 315.597656 253.292969 311.652344 249.191406 310.054688 L 106.796875 254.699219 C 101.304688 252.566406 95.121094 255.285156 92.988281 260.78125 C 92.839844 261.164062 92.714844 261.5625 92.605469 261.960938 C 82.910156 300.046875 82.910156 339.953125 92.605469 378.035156 C 93.828125 382.742188 98.070312 386.027344 102.933594 386.027344 C 104.253906 386.027344 105.566406 385.785156 106.796875 385.300781 L 249.191406 329.9375 C 253.292969 328.347656 256 324.402344 256 319.996094 Z M 110.589844 360.941406 C 105.359375 333.898438 105.359375 306.101562 110.589844 279.0625 L 215.890625 319.996094 Z M 110.589844 360.941406 " style=" stroke:none;fill-rule:nonzero;fill:rgb(0%,0%,0%);fill-opacity:1;" />
<path d="M 274.738281 365.257812 C 271.640625 362.132812 266.921875 361.246094 262.898438 363.039062 L 123.070312 424.585938 C 117.679688 426.960938 115.234375 433.253906 117.605469 438.648438 C 117.777344 439.027344 117.964844 439.398438 118.171875 439.753906 C 138.242188 473.542969 166.453125 501.757812 200.242188 521.824219 C 201.882812 522.789062 203.75 523.300781 205.652344 523.308594 C 206.761719 523.300781 207.871094 523.132812 208.925781 522.792969 C 211.824219 521.855469 214.183594 519.726562 215.414062 516.941406 L 276.957031 377.113281 C 278.734375 373.078125 277.855469 368.371094 274.738281 365.257812 Z M 200.871094 497.066406 C 178.027344 481.640625 158.359375 461.96875 142.933594 439.125 L 246.398438 393.601562 Z M 200.871094 497.066406 " style=" stroke:none;fill-rule:nonzero;fill:rgb(0%,0%,0%);fill-opacity:1;" />
<path d="M 329.9375 390.804688 C 327.804688 385.316406 321.625 382.59375 316.128906 384.730469 C 313.34375 385.8125 311.140625 388.015625 310.054688 390.804688 L 254.695312 533.195312 C 252.5625 538.683594 255.285156 544.863281 260.78125 547 C 261.164062 547.144531 261.5625 547.277344 261.960938 547.378906 C 300.042969 557.089844 339.953125 557.089844 378.035156 547.378906 C 383.738281 545.898438 387.160156 540.078125 385.679688 534.375 C 385.578125 533.972656 385.453125 533.582031 385.300781 533.195312 Z M 279.0625 529.40625 L 319.996094 424.105469 L 360.933594 529.40625 C 333.894531 534.636719 306.101562 534.636719 279.0625 529.40625 Z M 279.0625 529.40625 " style=" stroke:none;fill-rule:nonzero;fill:rgb(0%,0%,0%);fill-opacity:1;" />
<path d="M 516.925781 424.585938 L 377.097656 363.039062 C 371.707031 360.667969 365.40625 363.109375 363.035156 368.503906 C 361.824219 371.242188 361.828125 374.367188 363.035156 377.113281 L 424.582031 516.941406 C 425.808594 519.726562 428.171875 521.855469 431.066406 522.792969 C 432.125 523.132812 433.230469 523.308594 434.34375 523.308594 C 436.246094 523.300781 438.113281 522.789062 439.753906 521.824219 C 473.535156 501.757812 501.753906 473.542969 521.816406 439.753906 C 524.804688 434.675781 523.105469 428.136719 518.027344 425.152344 C 517.671875 424.945312 517.304688 424.753906 516.925781 424.585938 Z M 470.847656 470.855469 C 461.144531 480.597656 450.519531 489.375 439.125 497.066406 L 393.597656 393.601562 L 497.0625 439.125 C 489.371094 450.523438 480.59375 461.152344 470.847656 470.855469 Z M 470.847656 470.855469 " style=" stroke:none;fill-rule:nonzero;fill:rgb(0%,0%,0%);fill-opacity:1;" />
<path d="M 541.925781 255.148438 C 539.21875 253.75 536.035156 253.582031 533.199219 254.699219 L 390.804688 310.0625 C 385.308594 312.195312 382.589844 318.375 384.730469 323.863281 C 385.8125 326.652344 388.015625 328.859375 390.804688 329.945312 L 533.199219 385.300781 C 534.429688 385.785156 535.738281 386.03125 537.0625 386.027344 C 541.921875 386.027344 546.167969 382.742188 547.390625 378.039062 C 557.085938 339.953125 557.085938 300.046875 547.390625 261.964844 C 546.621094 259.015625 544.636719 256.535156 541.925781 255.148438 Z M 529.40625 360.941406 L 424.105469 319.996094 L 529.40625 279.0625 C 534.636719 306.101562 534.636719 333.898438 529.40625 360.941406 Z M 529.40625 360.941406 " style=" stroke:none;fill-rule:nonzero;fill:rgb(0%,0%,0%);fill-opacity:1;" />
<path d="M 365.257812 274.738281 C 368.367188 277.855469 373.070312 278.734375 377.097656 276.960938 L 516.925781 215.46875 C 522.316406 213.09375 524.761719 206.796875 522.390625 201.40625 C 522.21875 201.023438 522.03125 200.65625 521.824219 200.300781 C 501.753906 166.511719 473.542969 138.296875 439.753906 118.230469 C 434.675781 115.242188 428.136719 116.9375 425.148438 122.015625 C 424.9375 122.371094 424.75 122.738281 424.582031 123.113281 L 363.039062 262.941406 C 361.285156 266.960938 362.164062 271.640625 365.257812 274.738281 Z M 439.125 142.933594 C 461.96875 158.359375 481.636719 178.03125 497.0625 200.878906 L 393.597656 246.398438 Z M 439.125 142.933594 " style=" stroke:none;fill-rule:nonzero;fill:rgb(0%,0%,0%);fill-opacity:1;" />
<path d="M 319.996094 277.332031 C 296.433594 277.332031 277.332031 296.433594 277.332031 319.996094 C 277.332031 343.5625 296.433594 362.667969 319.996094 362.667969 C 343.5625 362.667969 362.664062 343.5625 362.664062 319.996094 C 362.664062 296.433594 343.5625 277.332031 319.996094 277.332031 Z M 319.996094 341.335938 C 308.214844 341.335938 298.664062 331.78125 298.664062 319.996094 C 298.664062 308.214844 308.214844 298.664062 319.996094 298.664062 C 331.78125 298.664062 341.332031 308.214844 341.332031 319.996094 C 341.332031 331.78125 331.78125 341.335938 319.996094 341.335938 Z M 319.996094 341.335938 " style=" stroke:none;fill-rule:nonzero;fill:rgb(0%,0%,0%);fill-opacity:1;" />
</g>
</svg>