<svg height="512" viewBox="0 0 60 60" width="512" xmlns="http://www.w3.org/2000/svg"><g id="Page-1" fill="none" fill-rule="evenodd"><g id="059---Tap" fill="rgb(0,0,0)" fill-rule="nonzero" transform="translate(0 -1)"><path id="Shape" d="m53 20h-30v-8c0-1.6568542 1.3431458-3 3-3h21c1.0961836-.00225023 2.1438333-.45237834 2.9-1.246.7621597-.79412675 1.1605188-1.8689722 1.1-2.968-.1607422-2.17074368-1.993866-3.83506182-4.17-3.786h-36.83c-3.86393756.00495836-6.99504164 3.13606244-7 7v47.265c-.62852851.2835909-1.13972091.7757063-1.447 1.393l-1.448 2.895c-.15493832.3100616-.13826339.6782442.04406841.9730309.18233179.2947868.50431356.4741307.85093159.4739691h24c.346618.0001616.6685998-.1791823.8509316-.4739691.1823318-.2947867.1990067-.6629693.0440684-.9730309l-1.448-2.895c-.3072791-.6172937-.8184715-1.1094091-1.447-1.393v-23.265h22v2c0 1.1045695.8954305 2 2 2h10c1.1045695 0 2-.8954305 2-2v-2.278c.6167513-.3544126.997855-1.0106732 1-1.722v-3c-.0049584-3.8639376-3.1360624-6.9950416-7-7zm-48-1h16v36h-16zm0-11c.00330612-2.76005315 2.23994685-4.99669388 5-5h36.83c1.106145-.03300592 2.0514204.79073411 2.17 1.891.0299686.54905333-.1674394 1.08622553-.5458093 1.48521661-.37837.39899108-.9043207.62460066-1.4541907.62378339h-21c-2.7600532.00330612-4.9966939 2.23994685-5 5v5h-16zm-2.382 51 .724-1.447c.16799348-.3398868.51486577-.554451.894-.553h17.528c.3791342-.001451.7260065.2131132.894.553l.724 1.447zm54.382-25h-10v-2h10zm1-4h-35v-8h30c2.7600532.0033061 4.9966939 2.2399468 5 5z"/><path id="Shape" d="m8 21c-.55228475 0-1 .4477153-1 1v2c0 .5522847.44771525 1 1 1s1-.4477153 1-1v-2c0-.5522847-.44771525-1-1-1z"/><path id="Shape" d="m8 27c-.55228475 0-1 .4477153-1 1v15c0 .5522847.44771525 1 1 1s1-.4477153 1-1v-15c0-.5522847-.44771525-1-1-1z"/><path id="Shape" d="m51.293 39.293c-.293.298-7.293 7.366-7.293 13.707 0 4.418278 3.581722 8 8 8s8-3.581722 8-8c0-6.341-6.995-13.409-7.293-13.707-.3904999-.3903819-1.0235001-.3903819-1.414 0zm.707 19.707c-3.3123376-.0033074-5.9966926-2.6876624-6-6 0-4.423 4.276-9.62 6-11.536 1.724 1.916 6 7.113 6 11.536-.0033074 3.3123376-2.6876624 5.9966926-6 6z"/></g></g></svg>