<svg height="512" viewBox="0 0 60 54" width="512" xmlns="http://www.w3.org/2000/svg"><g id="Page-1" fill="none" fill-rule="evenodd"><g id="029---Filters" fill="rgb(0,0,0)" fill-rule="nonzero"><path id="Shape" d="m58 6h-2c-.0021396-.78294654-.4609423-1.4926448-1.174-1.816l-.477-1.912c-.3340796-1.33555197-1.5342981-2.27230783-2.911-2.272h-14.876c-1.3767019-.00030783-2.5769204.93644803-2.911 2.272l-.477 1.912c-.7130577.3233552-1.1718604 1.03305346-1.174 1.816h-4c-.0021396-.78294654-.4609423-1.4926448-1.174-1.816l-.477-1.912c-.3340796-1.33555197-1.5342981-2.27230783-2.911-2.272h-14.876c-1.37670192-.00030783-2.57692036.93644803-2.911 2.272l-.477 1.912c-.71305769.3233552-1.17186042 1.03305346-1.174 1.816h-2c-1.1045695 0-2 .8954305-2 2v2c0 1.1045695.8954305 2 2 2h2c0 1.1045695.8954305 2 2 2v35c.00330612 2.7600532 2.23994685 4.9966939 5 5h10c2.7600532-.0033061 4.9966939-2.2399468 5-5v-35c1.1045695 0 2-.8954305 2-2h4c0 1.1045695.8954305 2 2 2v35c.0033061 2.7600532 2.2399468 4.9966939 5 5h10c2.7600532-.0033061 4.9966939-2.2399468 5-5v-35c1.1045695 0 2-.8954305 2-2h2c1.1045695 0 2-.8954305 2-2v-2c0-1.1045695-.8954305-2-2-2zm-22.409-3.242c.111161-.44569003.5116567-.75833242.971-.758h14.876c.4593433-.00033242.859839.31230997.971.758l.311 1.242h-17.44zm-28 0c.11116099-.44569003.51165671-.75833242.971-.758h14.876c.4593433-.00033242.859839.31230997.971.758l.311 1.242h-17.44zm-5.591 7.242v-2h2v2zm22 39c0 1.6568542-1.3431458 3-3 3h-10c-1.65685425 0-3-1.3431458-3-3v-35h4v32c0 .5522847.4477153 1 1 1s1-.4477153 1-1v-32h4v32c0 .5522847.4477153 1 1 1s1-.4477153 1-1v-32h4zm1-37h-19v-6h20v1 5zm3-2v-2h4v2zm24 39c0 1.6568542-1.3431458 3-3 3h-10c-1.6568542 0-3-1.3431458-3-3v-35h4v32c0 .5522847.4477153 1 1 1s1-.4477153 1-1v-32h4v32c0 .5522847.4477153 1 1 1s1-.4477153 1-1v-32h4zm1-37h-19v-6h20v1 5zm3-2v-2h2v2z"/></g></g></svg>