<svg height="512" viewBox="0 0 60 60" width="512" xmlns="http://www.w3.org/2000/svg"><g id="Page-1" fill="none" fill-rule="evenodd"><g id="023---Y-Pipe" fill="rgb(0,0,0)" fill-rule="nonzero"><path id="Shape" d="m.586 18.971 2.828 2.829c.7809997.7807639 2.0470003.7807639 2.828 0l12.465 12.464c.1882061.1870531.2937185.4416514.293.707v17.029c-1.1045695 0-2 .8954305-2 2v4c0 1.1045695.8954305 2 2 2h22c1.1045695 0 2-.8954305 2-2v-4c0-1.1045695-.8954305-2-2-2v-17.029c-.0007185-.2653486.1047939-.5199469.293-.707l12.465-12.464c.7809997.7807639 2.0470003.7807639 2.828 0l2.828-2.828c.375248-.375096.5860729-.8839266.5860729-1.4145s-.2108249-1.039404-.5860729-1.4145l-15.556-15.557c-.375096-.37524801-.8839266-.58607293-1.4145-.58607293s-1.039404.21082492-1.4145.58607293l-2.829 2.828c-.7807639.7809997-.7807639 2.0470003 0 2.828l-7.494 7.494c-.1766082.1703065-.4107249.268093-.656.274-.018 0-.033-.01-.051-.01s-.033.009-.051.01c-.2451925-.0062939-.4791746-.1040242-.656-.274l-7.492-7.494c.7807639-.7809997.7807639-2.0470003 0-2.828l-2.829-2.828c-.375096-.37524801-.8839266-.58607293-1.4145-.58607293s-1.039404.21082492-1.4145.58607293l-15.556 15.556c-.37524801.375096-.58607293.8839266-.58607293 1.4145s.21082492 1.039404.58607293 1.4145zm40.414 39.029h-22v-4h22zm1.444-56 15.556 15.557-2.829 2.828-15.556-15.556zm-13.444 13.847v11.153c0 .5522847.4477153 1 1 1s1-.4477153 1-1v-11.153c.4216622-.145835.8048864-.3851364 1.121-.7l7.494-7.494 12.729 12.732-12.465 12.465c-.5647128.5610959-.8812673 1.3249322-.879 2.121v17.029h-18v-17.029c.0022673-.7960678-.3142872-1.5599041-.879-2.121l-12.465-12.465 12.729-12.729 7.493 7.494c.3169401.3136081.7004228.5518321 1.122.697zm-11.443-13.847 2.829 2.828-15.558 15.557-2.828-2.829z"/></g></g></svg>