<svg xmlns="http://www.w3.org/2000/svg" height="638pt" version="1.1" viewBox="-42 0 638 638.75103" width="638pt">
<g id="surface1">
<path d="M 538.503906 356.976562 C 559.269531 336.167969 559.242188 302.46875 538.4375 281.699219 C 531.054688 274.328125 521.664062 269.292969 511.445312 267.210938 L 511.445312 105.394531 C 540.25 99.542969 558.867188 71.445312 553.011719 42.636719 C 547.972656 17.808594 526.132812 -0.0234375 500.796875 0 L 53.671875 0 C 24.269531 -0.0273438 0.417969 23.777344 0.386719 53.175781 C 0.363281 78.507812 18.195312 100.351562 43.023438 105.394531 L 43.023438 267.210938 C 14.214844 273.058594 -4.398438 301.160156 1.449219 329.964844 C 5.703125 350.914062 22.078125 367.285156 43.023438 371.539062 L 43.023438 533.355469 C 14.214844 539.203125 -4.398438 567.304688 1.449219 596.113281 C 6.492188 620.9375 28.335938 638.773438 53.671875 638.75 L 500.796875 638.75 C 530.191406 638.78125 554.050781 614.96875 554.082031 585.574219 C 554.105469 560.242188 536.269531 538.398438 511.445312 533.355469 L 511.445312 371.539062 C 521.6875 369.425781 531.09375 364.359375 538.503906 356.976562 Z M 532.734375 319.375 C 532.769531 336.976562 518.53125 351.277344 500.921875 351.316406 C 500.882812 351.316406 500.839844 351.316406 500.796875 351.316406 L 393.496094 351.316406 C 393.398438 350.707031 393.175781 349.984375 393.070312 349.367188 C 392.546875 346.328125 391.859375 343.148438 390.941406 339.785156 C 390.65625 338.71875 390.394531 337.65625 390.078125 336.589844 C 388.832031 332.332031 387.375 327.859375 385.5625 323.125 C 385.363281 322.613281 385.117188 322.0625 384.914062 321.550781 C 383.222656 317.234375 381.273438 312.714844 379.113281 308.015625 C 378.460938 306.601562 377.785156 305.152344 377.085938 303.691406 C 374.960938 299.117188 372.53125 294.378906 369.921875 289.449219 C 369.554688 288.757812 369.285156 288.136719 368.863281 287.4375 L 500.796875 287.4375 C 518.433594 287.4375 532.734375 301.738281 532.734375 319.375 Z M 490.148438 532.292969 L 64.316406 532.292969 L 64.316406 372.605469 L 160.605469 372.605469 C 160.605469 372.839844 160.679688 373.066406 160.703125 373.296875 C 160.855469 374.800781 161.117188 376.246094 161.324219 377.726562 C 161.628906 380.046875 161.925781 382.359375 162.386719 384.625 C 162.691406 386.179688 163.109375 387.703125 163.449219 389.234375 C 163.960938 391.363281 164.515625 393.492188 165.089844 395.621094 C 165.558594 397.175781 166.152344 398.6875 166.652344 400.222656 C 167.335938 402.210938 168.027344 404.191406 168.785156 406.140625 C 169.414062 407.664062 170.105469 409.132812 170.796875 410.621094 C 171.648438 412.496094 172.511719 414.359375 173.46875 416.167969 C 174.238281 417.640625 175.066406 419.054688 175.882812 420.480469 C 176.953125 422.234375 177.941406 423.976562 179.082031 425.667969 C 179.984375 427.058594 180.933594 428.410156 181.886719 429.75 C 183.058594 431.394531 184.25 432.949219 185.5 434.574219 C 186.53125 435.875 187.597656 437.144531 188.691406 438.386719 C 190.003906 439.90625 191.34375 441.378906 192.726562 442.824219 C 193.867188 444.027344 195.027344 445.199219 196.230469 446.347656 C 197.667969 447.734375 199.152344 449.074219 200.667969 450.382812 C 201.914062 451.445312 203.167969 452.511719 204.457031 453.574219 C 206.035156 454.832031 207.652344 456.015625 209.289062 457.1875 C 210.628906 458.15625 211.964844 459.113281 213.34375 460.019531 C 215.050781 461.085938 216.796875 462.148438 218.554688 463.214844 C 219.96875 464.042969 221.375 464.882812 222.8125 465.652344 C 224.640625 466.605469 226.519531 467.46875 228.402344 468.34375 C 229.871094 469.023438 231.328125 469.726562 232.828125 470.34375 C 234.800781 471.164062 236.824219 471.847656 238.847656 472.546875 C 240.339844 473.070312 241.816406 473.609375 243.351562 474.101562 C 245.480469 474.75 247.691406 475.261719 249.886719 475.792969 C 251.355469 476.144531 252.789062 476.5625 254.28125 476.859375 C 256.75 477.347656 259.277344 477.679688 261.800781 478.011719 C 263.0625 478.179688 264.308594 478.433594 265.597656 478.5625 C 269.433594 478.9375 273.304688 479.144531 277.234375 479.144531 C 281.160156 479.144531 285.035156 478.9375 288.871094 478.5625 C 290.15625 478.433594 291.40625 478.179688 292.671875 478.011719 C 295.191406 477.679688 297.714844 477.347656 300.1875 476.859375 C 301.679688 476.5625 303.117188 476.144531 304.582031 475.792969 C 306.777344 475.261719 308.976562 474.730469 311.117188 474.101562 C 312.652344 473.644531 314.132812 473.039062 315.621094 472.546875 C 317.644531 471.847656 319.671875 471.164062 321.640625 470.34375 C 323.140625 469.726562 324.597656 469.023438 326.070312 468.34375 C 327.949219 467.46875 329.828125 466.605469 331.652344 465.652344 C 333.117188 464.882812 334.519531 464.042969 335.914062 463.214844 C 337.671875 462.148438 339.417969 461.160156 341.121094 460.019531 C 342.507812 459.117188 343.835938 458.15625 345.175781 457.1875 C 346.816406 456.015625 348.433594 454.832031 350.011719 453.574219 C 351.296875 452.511719 352.554688 451.445312 353.796875 450.382812 C 355.3125 449.074219 356.804688 447.734375 358.238281 446.347656 C 359.441406 445.199219 360.601562 444.027344 361.742188 442.824219 C 363.125 441.378906 364.464844 439.90625 365.777344 438.386719 C 366.863281 437.144531 367.925781 435.871094 368.972656 434.574219 C 370.214844 433 371.410156 431.382812 372.578125 429.75 C 373.539062 428.410156 374.484375 427.058594 375.390625 425.667969 C 376.453125 423.972656 377.519531 422.234375 378.582031 420.480469 C 379.402344 419.054688 380.234375 417.640625 381 416.167969 C 381.960938 414.359375 382.824219 412.496094 383.671875 410.621094 C 384.363281 409.132812 385.054688 407.664062 385.683594 406.140625 C 386.472656 404.195312 387.164062 402.210938 387.8125 400.222656 C 388.347656 398.6875 388.878906 397.175781 389.382812 395.621094 C 390.007812 393.492188 390.507812 391.363281 391.019531 389.234375 C 391.378906 387.703125 391.796875 386.179688 392.082031 384.625 C 392.53125 382.359375 392.828125 380.046875 393.148438 377.726562 C 393.347656 376.246094 393.617188 374.800781 393.765625 373.296875 C 393.765625 373.066406 393.839844 372.839844 393.859375 372.605469 L 490.152344 372.605469 L 490.152344 532.292969 Z M 64.316406 106.457031 L 490.148438 106.457031 L 490.148438 266.144531 L 356.875 266.144531 C 356.449219 265.421875 356 264.707031 355.566406 264.015625 C 354.5 262.207031 353.4375 260.417969 352.296875 258.621094 L 349.519531 254.128906 C 348.453125 252.402344 347.390625 250.703125 346.324219 248.984375 C 345.359375 247.460938 344.386719 245.941406 343.40625 244.429688 C 342.339844 242.765625 341.277344 241.117188 340.210938 239.476562 L 337.242188 234.964844 L 334.125 230.265625 L 331.078125 225.773438 C 330.070312 224.289062 329.054688 222.796875 328.046875 221.335938 C 327.035156 219.878906 326.054688 218.449219 325.066406 217.027344 C 324.074219 215.597656 323.097656 214.191406 322.125 212.765625 L 319.242188 208.679688 L 316.367188 204.625 C 315.464844 203.355469 314.578125 202.144531 313.695312 200.914062 C 312.8125 199.691406 311.828125 198.332031 310.917969 197.085938 C 310 195.835938 309.257812 194.792969 308.421875 193.667969 L 305.804688 190.101562 L 303.578125 187.121094 C 302.742188 185.980469 301.886719 184.832031 301.078125 183.765625 C 300.503906 182.992188 300.015625 182.300781 299.417969 181.5625 L 296.800781 178.09375 L 295.734375 176.65625 L 293.277344 173.464844 L 292.007812 171.8125 L 290.242188 169.546875 L 289.71875 168.863281 C 287.410156 165.914062 285.917969 164.042969 285.621094 163.679688 C 281.640625 159.09375 274.695312 158.605469 270.109375 162.585938 C 269.71875 162.921875 269.355469 163.289062 269.011719 163.679688 C 268.714844 164.042969 267.222656 165.914062 264.914062 168.863281 L 264.394531 169.546875 L 262.507812 171.972656 L 261.371094 173.441406 L 259.089844 176.421875 L 257.761719 178.15625 L 255.363281 181.347656 L 253.472656 183.863281 L 251.171875 186.953125 L 248.753906 190.144531 L 246.335938 193.433594 C 245.429688 194.660156 244.546875 195.871094 243.613281 197.164062 L 241.132812 200.589844 L 238.128906 204.75 L 235.605469 208.308594 C 234.539062 209.828125 233.476562 211.347656 232.347656 212.929688 C 231.5 214.132812 230.65625 215.355469 229.792969 216.578125 L 226.40625 221.484375 L 223.746094 225.382812 L 220.328125 230.449219 C 219.425781 231.78125 218.53125 233.132812 217.632812 234.496094 C 216.472656 236.242188 215.3125 237.988281 214.152344 239.765625 C 213.261719 241.148438 212.367188 242.523438 211.472656 243.917969 C 210.324219 245.707031 209.171875 247.496094 208.035156 249.300781 C 207.117188 250.738281 206.210938 252.1875 205.292969 253.636719 L 201.984375 258.960938 C 201.070312 260.472656 200.152344 261.972656 199.25 263.484375 C 198.730469 264.355469 198.183594 265.207031 197.671875 266.082031 L 64.316406 266.082031 Z M 212.867188 282.113281 C 232.453125 249.394531 253.945312 217.859375 277.234375 187.664062 C 278.960938 189.910156 280.910156 192.476562 283.03125 195.316406 C 304.144531 223.15625 323.691406 252.144531 341.585938 282.148438 C 367.585938 326.898438 373.046875 350.246094 373.046875 361.957031 C 373.046875 414.871094 330.148438 457.773438 277.234375 457.773438 C 224.316406 457.773438 181.421875 414.871094 181.421875 361.957031 C 181.46875 358.214844 181.894531 354.492188 182.675781 350.832031 C 189.121094 326.5 199.304688 303.316406 212.867188 282.113281 Z M 21.734375 53.230469 C 21.734375 35.589844 36.03125 21.292969 53.671875 21.292969 L 500.796875 21.292969 C 518.433594 21.292969 532.734375 35.589844 532.734375 53.230469 C 532.734375 70.867188 518.433594 85.164062 500.796875 85.164062 L 53.671875 85.164062 C 36.03125 85.164062 21.734375 70.867188 21.734375 53.230469 Z M 21.734375 319.375 C 21.699219 301.773438 35.9375 287.476562 53.539062 287.4375 C 53.585938 287.4375 53.628906 287.4375 53.667969 287.4375 L 185.519531 287.4375 C 185.105469 288.214844 184.808594 288.882812 184.402344 289.652344 C 181.84375 294.496094 179.496094 299.160156 177.355469 303.640625 C 176.644531 305.132812 175.957031 306.601562 175.289062 308.058594 C 173.160156 312.722656 171.199219 317.226562 169.53125 321.515625 C 169.316406 322.035156 169.0625 322.578125 168.855469 323.125 C 167.050781 327.859375 165.585938 332.308594 164.34375 336.589844 C 164.023438 337.648438 163.769531 338.71875 163.480469 339.84375 C 162.609375 343.152344 161.898438 346.324219 161.351562 349.359375 C 161.246094 349.980469 161.019531 350.699219 160.929688 351.308594 L 53.671875 351.308594 C 36.03125 351.316406 21.734375 337.011719 21.734375 319.375 Z M 532.734375 585.519531 C 532.734375 603.160156 518.433594 617.460938 500.796875 617.460938 L 53.671875 617.460938 C 36.03125 617.460938 21.734375 603.160156 21.734375 585.519531 C 21.734375 567.882812 36.03125 553.585938 53.671875 553.585938 L 500.796875 553.585938 C 518.433594 553.585938 532.734375 567.882812 532.734375 585.519531 Z M 532.734375 585.519531 " style=" stroke:none;fill-rule:nonzero;fill:rgb(0%,0%,0%);fill-opacity:1;" />
<path d="M 277.234375 436.480469 C 318.371094 436.433594 351.707031 403.09375 351.757812 361.957031 C 351.757812 357.285156 349.699219 338.464844 323.195312 292.863281 C 320.550781 287.613281 314.152344 285.492188 308.902344 288.128906 C 303.648438 290.769531 301.527344 297.167969 304.164062 302.421875 C 304.355469 302.796875 304.5625 303.160156 304.796875 303.511719 C 329.675781 346.382812 330.464844 361.886719 330.464844 361.957031 C 330.425781 391.339844 306.613281 415.148438 277.234375 415.1875 C 271.351562 415.1875 266.585938 419.957031 266.585938 425.832031 C 266.585938 431.714844 271.351562 436.480469 277.234375 436.480469 Z M 277.234375 436.480469 " style=" stroke:none;fill-rule:nonzero;fill:rgb(0%,0%,0%);fill-opacity:1;" />
</g>
</svg>